<?xml version="1.0" encoding="UTF-8"?>
<svg width="43px" height="43px" viewBox="0 0 43 43" version="1.1" xmlns="http://www.w3.org/2000/svg" xmlns:xlink="http://www.w3.org/1999/xlink">
    <!-- Generator: Sketch 47.1 (45422) - http://www.bohemiancoding.com/sketch -->
    <title>Group 19 Copy</title>
    <desc>Created with Sketch.</desc>
    <defs></defs>
    <g id="Page-1" stroke="none" stroke-width="1" fill="none" fill-rule="evenodd">
        <g id="视频详情-H5状态" transform="translate(-677.000000, -2110.000000)">
            <g id="Group-7" transform="translate(0.000000, 2095.000000)">
                <g id="Group-19-Copy" transform="translate(677.000000, 15.000000)">
                    <circle id="Oval-6" fill="#000000" opacity="0.302875906" cx="21.5" cy="21.5" r="21.5"></circle>
                    <path d="M31.6627991,30.2952297 L23.3672314,21.9992886 L31.6626565,13.7043453 C32.0718002,13.2948408 32.129394,12.6893159 31.7203928,12.2802391 C31.3108214,11.8706633 30.7043763,11.9275449 30.2952325,12.3369068 L22.0000926,20.6320639 L13.7050239,12.3369781 C13.2951674,11.9276161 12.6891499,11.8708058 12.2798636,12.2803103 C11.8707911,12.6894584 11.9277434,13.2948408 12.3373148,13.7044166 L20.6326686,21.9992886 L12.3370297,30.2952297 C11.9276721,30.7051619 11.8707199,31.310972 12.2797211,31.7201913 C12.6890786,32.1294107 13.294811,32.0723866 13.7043824,31.6623831 L22.0000926,23.3666558 L30.2956602,31.6623831 C30.7045901,32.0717451 31.3107501,32.1294107 31.7203215,31.7201913 C32.129394,31.310972 32.0722279,30.7044491 31.6627991,30.2952297 L31.6627991,30.2952297 Z" id="Shape" fill="#FFFFFF" fill-rule="nonzero"></path>
                </g>
            </g>
        </g>
    </g>
</svg>