<?xml version="1.0" encoding="UTF-8"?>
<svg width="39px" height="38px" viewBox="0 0 39 38" version="1.1" xmlns="http://www.w3.org/2000/svg" xmlns:xlink="http://www.w3.org/1999/xlink">
    <!-- Generator: Sketch 47.1 (45422) - http://www.bohemiancoding.com/sketch -->
    <title>Group 10 Copy</title>
    <desc>Created with Sketch.</desc>
    <defs></defs>
    <g id="Page-1" stroke="none" stroke-width="1" fill="none" fill-rule="evenodd">
        <g id="文章详情-H5状态" transform="translate(-187.000000, -1638.000000)">
            <g id="Group-17" transform="translate(-1.000000, 1444.000000)">
                <g id="Group-Copy-3">
                    <g id="Group-4" transform="translate(30.000000, 196.000000)">
                        <g id="Group-10-Copy" transform="translate(160.000000, 0.000000)">
                            <g id="Group-12">
                                <path d="M17.5012524,0 C7.75190678,0 0.00247175141,6.6 0.00247175141,14.4222246 C0.00247175141,21.0222246 5.50208569,26.6444707 13.0015772,28.35554 L13.0015772,33 C13.0015772,33 26.5006356,26.888877 26.7506121,26.888877 L27.250565,26.6444385 C32.0002495,23.9555508 35,19.5555615 35,14.4221924 C35.000033,6.6 27.2505979,0 17.5012524,0 Z" id="Shape" stroke="#9C9DA0" stroke-width="3" fill-rule="nonzero" transform="translate(17.501236, 16.500000) scale(-1, 1) translate(-17.501236, -16.500000) "></path>
                                <ellipse id="Oval-4" fill="#C8C8C8" cx="8.75" cy="15.46875" rx="2.45" ry="2.40625"></ellipse>
                                <ellipse id="Oval-4-Copy" fill="#C8C8C8" cx="17.5" cy="15.46875" rx="2.45" ry="2.40625"></ellipse>
                                <ellipse id="Oval-4-Copy-2" fill="#C8C8C8" cx="26.25" cy="15.46875" rx="2.45" ry="2.40625"></ellipse>
                            </g>
                        </g>
                    </g>
                </g>
            </g>
        </g>
    </g>
</svg>