<?xml version="1.0" encoding="UTF-8"?>
<svg width="39px" height="35px" viewBox="0 0 39 35" version="1.1" xmlns="http://www.w3.org/2000/svg" xmlns:xlink="http://www.w3.org/1999/xlink">
    <!-- Generator: Sketch 47.1 (45422) - http://www.bohemiancoding.com/sketch -->
    <title>Group 3</title>
    <desc>Created with Sketch.</desc>
    <defs></defs>
    <g id="Page-1" stroke="none" stroke-width="1" fill="none" fill-rule="evenodd">
        <g id="视频详情-H5状态" transform="translate(-630.000000, -1610.000000)">
            <g id="Group-8" transform="translate(631.000000, 1608.000000)">
                <g id="Group-3" transform="translate(0.000000, 3.000000)">
                    <g id="点赞" stroke="#515151" stroke-width="0.4" fill="#515151" fill-rule="nonzero">
                        <path d="M26.4829416,0 C22.5017578,0 19.6499255,3.58537591 18.4208963,5.48167706 C17.1905207,3.58537591 14.3399899,0 10.3588959,0 C4.64612066,0 0,5.14513595 0,11.4687264 C0,14.4256949 2.00679346,18.664776 4.44286072,20.8833098 C7.81269394,25.2104396 17.2863388,33 18.4558575,33 C19.6460658,33 28.9164058,25.3618226 32.3471407,20.9351612 C34.8259334,18.6777389 36.8424658,14.4328268 36.8424658,11.4687264 C36.8424658,5.14509115 32.1955822,0 26.4829416,0 M34.3998461,11.4687264 C34.3998461,13.8335746 32.6838279,17.3626585 30.6531136,19.1747234 C30.5974628,19.2252741 30.5469283,19.2808933 30.4963939,19.3418054 C27.4775195,23.2728726 21.3996034,28.1487488 18.4623202,30.284392 C16.2787907,28.6871338 9.70221689,23.7102459 6.325921,19.3262858 C6.28059257,19.2667194 6.22749996,19.2110105 6.17184918,19.1592039 C4.14880928,17.3496956 2.44194653,13.8296723 2.44194653,11.4687264 C2.44194653,6.49058269 5.99304866,2.43988925 10.3588959,2.43988925 C13.1731191,2.43988925 15.8825035,5.48423373 17.3188317,8.50269737 C17.5091663,8.90266228 17.931394,9.15178254 18.4209412,9.15178254 C18.9104884,9.15178254 19.3326712,8.90261744 19.5243073,8.50269737 C20.9593341,5.48423373 23.667372,2.43988925 26.4829865,2.43988925 C30.8486542,2.43988925 34.3998461,6.49058269 34.3998461,11.4687264" id="Shape"></path>
                    </g>
                    <g id="Group-2" transform="translate(18.000000, 10.000000)" fill="#ADADAD">
                        <rect id="Rectangle-10" transform="translate(4.780151, 8.921519) rotate(-47.000000) translate(-4.780151, -8.921519) " x="-0.0841475171" y="6.92151948" width="9.72859713" height="4" rx="2"></rect>
                        <rect id="Rectangle-10-Copy-2" transform="translate(10.826704, 2.826704) rotate(-47.000000) translate(-10.826704, -2.826704) " x="8.82670412" y="0.826704123" width="4" height="4" rx="2"></rect>
                    </g>
                </g>
            </g>
        </g>
    </g>
</svg>